<svg xmlns="http://www.w3.org/2000/svg" viewBox="0 0 160 160" width="160" height="160" role="img" aria-label="Platzhalter – Foto folgt">
  <rect width="160" height="160" fill="#eaeadd"/>
  <g fill="#586d46" opacity=".45" transform="translate(80 84) scale(3.1) translate(-14 -13)">
    <ellipse cx="6" cy="11" rx="2.6" ry="3.1"/>
    <ellipse cx="11.3" cy="7" rx="2.8" ry="3.4"/>
    <ellipse cx="16.7" cy="7" rx="2.8" ry="3.4"/>
    <ellipse cx="22" cy="11" rx="2.6" ry="3.1"/>
    <path d="M14 12.2c-4 0-7 2.9-7 6 0 2.4 2 3.6 4.1 3.6 1.1 0 2-.5 2.9-.5s1.8.5 2.9.5c2.1 0 4.1-1.2 4.1-3.6 0-3.1-3-6-7-6z"/>
  </g>
</svg>
