<svg xmlns="http://www.w3.org/2000/svg" viewBox="0 0 32 32" width="32" height="32">
  <rect width="32" height="32" rx="7" fill="#586d46"/>
  <g fill="#ffffff" transform="translate(16 17) scale(.86) translate(-14 -13)">
    <ellipse cx="6" cy="11" rx="2.6" ry="3.1"/>
    <ellipse cx="11.3" cy="7" rx="2.8" ry="3.4"/>
    <ellipse cx="16.7" cy="7" rx="2.8" ry="3.4"/>
    <ellipse cx="22" cy="11" rx="2.6" ry="3.1"/>
    <path d="M14 12.2c-4 0-7 2.9-7 6 0 2.4 2 3.6 4.1 3.6 1.1 0 2-.5 2.9-.5s1.8.5 2.9.5c2.1 0 4.1-1.2 4.1-3.6 0-3.1-3-6-7-6z"/>
  </g>
</svg>
