<svg xmlns="http://www.w3.org/2000/svg" viewBox="0 0 800 1100" width="800" height="1100" role="img" aria-label="Platzhalter – Foto folgt">
  <defs>
    <linearGradient id="g" x1="0" y1="0" x2="1" y2="1">
      <stop offset="0" stop-color="#7d9060"/>
      <stop offset="100%" stop-color="#3d4d31"/>
    </linearGradient>
  </defs>
  <rect width="800" height="1100" fill="url(#g)"/>
  <g fill="#ffffff" opacity=".13" transform="translate(400 470) scale(7) translate(-14 -13)">
    <ellipse cx="6" cy="11" rx="2.6" ry="3.1"/>
    <ellipse cx="11.3" cy="7" rx="2.8" ry="3.4"/>
    <ellipse cx="16.7" cy="7" rx="2.8" ry="3.4"/>
    <ellipse cx="22" cy="11" rx="2.6" ry="3.1"/>
    <path d="M14 12.2c-4 0-7 2.9-7 6 0 2.4 2 3.6 4.1 3.6 1.1 0 2-.5 2.9-.5s1.8.5 2.9.5c2.1 0 4.1-1.2 4.1-3.6 0-3.1-3-6-7-6z"/>
  </g>
  <text x="400" y="700" text-anchor="middle" fill="#ffffff" fill-opacity=".5"
        font-family="system-ui, sans-serif" font-size="26" letter-spacing="5">FOTO FOLGT</text>
</svg>
