<svg xmlns="http://www.w3.org/2000/svg" viewBox="0 0 400 700" width="400" height="700" role="img" aria-label="Platzhalter – Foto folgt">
  <rect width="400" height="700" fill="#586d46"/>
  <g fill="#ffffff" opacity=".14" transform="translate(200 320) scale(4.5) translate(-14 -13)">
    <ellipse cx="6" cy="11" rx="2.6" ry="3.1"/>
    <ellipse cx="11.3" cy="7" rx="2.8" ry="3.4"/>
    <ellipse cx="16.7" cy="7" rx="2.8" ry="3.4"/>
    <ellipse cx="22" cy="11" rx="2.6" ry="3.1"/>
    <path d="M14 12.2c-4 0-7 2.9-7 6 0 2.4 2 3.6 4.1 3.6 1.1 0 2-.5 2.9-.5s1.8.5 2.9.5c2.1 0 4.1-1.2 4.1-3.6 0-3.1-3-6-7-6z"/>
  </g>
  <text x="200" y="430" text-anchor="middle" fill="#ffffff" fill-opacity=".45"
        font-family="system-ui, sans-serif" font-size="18" letter-spacing="4">FOTO FOLGT</text>
</svg>
